<mxfile host="65bd71144e">
    <diagram name="Page-1" id="aSOdbRMpBCBLWnjGmdwC">
        <mxGraphModel dx="1983" dy="1583" grid="1" gridSize="10" guides="1" tooltips="1" connect="1" arrows="1" fold="1" page="1" pageScale="1" pageWidth="850" pageHeight="1100" math="0" shadow="0">
            <root>
                <mxCell id="0"/>
                <mxCell id="1" parent="0"/>
                <mxCell id="16" value="" style="html=1;whiteSpace=wrap;fontSize=16;container=0;" parent="1" vertex="1">
                    <mxGeometry x="1120" y="110" width="1050" height="1790" as="geometry"/>
                </mxCell>
                <mxCell id="18" style="edgeStyle=none;curved=1;rounded=0;orthogonalLoop=1;jettySize=auto;html=1;entryX=0;entryY=0.5;entryDx=0;entryDy=0;fontSize=12;startSize=8;endSize=8;endArrow=none;endFill=0;" parent="1" target="57" edge="1">
                    <mxGeometry relative="1" as="geometry">
                        <mxPoint x="1030" y="905" as="sourcePoint"/>
                    </mxGeometry>
                </mxCell>
                <mxCell id="22" style="edgeStyle=none;curved=1;rounded=0;orthogonalLoop=1;jettySize=auto;html=1;entryX=0;entryY=0.5;entryDx=0;entryDy=0;fontSize=12;startSize=8;endSize=8;endArrow=none;endFill=0;" parent="1" target="30" edge="1">
                    <mxGeometry relative="1" as="geometry">
                        <mxPoint x="1030" y="905" as="sourcePoint"/>
                    </mxGeometry>
                </mxCell>
                <mxCell id="201" style="edgeStyle=none;html=1;exitX=0.5;exitY=0;exitDx=0;exitDy=0;exitPerimeter=0;endArrow=block;endFill=0;endSize=13;" parent="1" source="23" edge="1">
                    <mxGeometry relative="1" as="geometry">
                        <Array as="points"/>
                        <mxPoint x="995" y="290" as="targetPoint"/>
                    </mxGeometry>
                </mxCell>
                <mxCell id="23" value="Player" style="shape=umlActor;verticalLabelPosition=bottom;verticalAlign=top;html=1;fontSize=16;container=0;" parent="1" vertex="1">
                    <mxGeometry x="980" y="875" width="30" height="60" as="geometry"/>
                </mxCell>
                <mxCell id="20" style="edgeStyle=none;curved=1;rounded=0;orthogonalLoop=1;jettySize=auto;html=1;entryX=0;entryY=0.5;entryDx=0;entryDy=0;fontSize=12;startSize=8;endSize=8;endArrow=none;endFill=0;" parent="1" source="23" target="46" edge="1">
                    <mxGeometry relative="1" as="geometry"/>
                </mxCell>
                <mxCell id="74" style="edgeStyle=none;html=1;entryX=0;entryY=0.5;entryDx=0;entryDy=0;endArrow=none;endFill=0;" parent="1" target="80" edge="1">
                    <mxGeometry relative="1" as="geometry">
                        <mxPoint x="1040" y="1694.9999999999995" as="sourcePoint"/>
                    </mxGeometry>
                </mxCell>
                <mxCell id="76" style="edgeStyle=none;html=1;entryX=0;entryY=0.5;entryDx=0;entryDy=0;dashed=1;dashPattern=8 8;endArrow=none;endFill=0;startArrow=classic;startFill=1;" parent="1" target="83" edge="1">
                    <mxGeometry relative="1" as="geometry">
                        <mxPoint x="1310.0000000000036" y="1694.9999999999995" as="sourcePoint"/>
                    </mxGeometry>
                </mxCell>
                <mxCell id="77" value="&amp;lt;&amp;lt; include &amp;gt;&amp;gt;" style="edgeLabel;html=1;align=center;verticalAlign=middle;resizable=0;points=[];container=0;" parent="76" vertex="1" connectable="0">
                    <mxGeometry x="-0.0051" y="-3" relative="1" as="geometry">
                        <mxPoint x="1" y="-18" as="offset"/>
                    </mxGeometry>
                </mxCell>
                <mxCell id="192" style="edgeStyle=none;html=1;entryX=0;entryY=0.5;entryDx=0;entryDy=0;startArrow=none;startFill=0;endArrow=classic;endFill=1;startSize=8;endSize=8;" parent="1" source="84" target="190" edge="1">
                    <mxGeometry relative="1" as="geometry"/>
                </mxCell>
                <mxCell id="193" style="edgeStyle=none;html=1;entryX=0;entryY=0.5;entryDx=0;entryDy=0;startArrow=none;startFill=0;endArrow=classic;endFill=1;startSize=8;endSize=8;" parent="1" source="84" target="191" edge="1">
                    <mxGeometry relative="1" as="geometry"/>
                </mxCell>
                <mxCell id="84" value="Voter" style="ellipse;whiteSpace=wrap;html=1;fontSize=16;container=0;" parent="1" vertex="1">
                    <mxGeometry x="1590" y="1380" width="140" height="70" as="geometry"/>
                </mxCell>
                <mxCell id="85" style="edgeStyle=none;html=1;entryX=0;entryY=0.5;entryDx=0;entryDy=0;endArrow=classic;endFill=1;exitX=1;exitY=0.5;exitDx=0;exitDy=0;" parent="1" source="30" target="84" edge="1">
                    <mxGeometry relative="1" as="geometry"/>
                </mxCell>
                <mxCell id="89" style="edgeStyle=none;html=1;entryX=0;entryY=0.5;entryDx=0;entryDy=0;endArrow=none;endFill=0;" parent="1" source="88" target="71" edge="1">
                    <mxGeometry relative="1" as="geometry"/>
                </mxCell>
                <mxCell id="88" value="User" style="shape=umlActor;verticalLabelPosition=bottom;verticalAlign=top;html=1;fontSize=16;container=0;" parent="1" vertex="1">
                    <mxGeometry x="980" y="205" width="30" height="60" as="geometry"/>
                </mxCell>
                <mxCell id="200" style="edgeStyle=none;html=1;exitX=0;exitY=0.5;exitDx=0;exitDy=0;entryX=1;entryY=1;entryDx=0;entryDy=0;endArrow=none;endFill=0;startSize=8;endSize=8;startArrow=classic;startFill=1;" parent="1" source="198" target="84" edge="1">
                    <mxGeometry relative="1" as="geometry"/>
                </mxCell>
                <mxCell id="198" value="Voir le résultat du vote" style="ellipse;whiteSpace=wrap;html=1;fontSize=16;fillColor=default;container=0;" parent="1" vertex="1">
                    <mxGeometry x="1820" y="1470" width="140" height="70" as="geometry"/>
                </mxCell>
                <mxCell id="49" value="Voir la liste des parties" style="ellipse;whiteSpace=wrap;html=1;fontSize=16;container=0;" parent="1" vertex="1">
                    <mxGeometry x="1440" y="365" width="140" height="70" as="geometry"/>
                </mxCell>
                <mxCell id="50" value="Voir le détail &lt;br&gt;d'une partie" style="ellipse;whiteSpace=wrap;html=1;fontSize=16;container=0;" parent="1" vertex="1">
                    <mxGeometry x="1440" y="468" width="140" height="70" as="geometry"/>
                </mxCell>
                <mxCell id="51" value="S'inscrire à une partie" style="ellipse;whiteSpace=wrap;html=1;fontSize=16;container=0;" parent="1" vertex="1">
                    <mxGeometry x="1440" y="571" width="140" height="70" as="geometry"/>
                </mxCell>
                <mxCell id="52" value="Se désinscrire &lt;br&gt;d'une partie" style="ellipse;whiteSpace=wrap;html=1;fontSize=16;container=0;" parent="1" vertex="1">
                    <mxGeometry x="1440" y="674" width="140" height="70" as="geometry"/>
                </mxCell>
                <mxCell id="53" value="Créer une partie" style="ellipse;whiteSpace=wrap;html=1;fontSize=16;container=0;" parent="1" vertex="1">
                    <mxGeometry x="1440" y="777" width="140" height="70" as="geometry"/>
                </mxCell>
                <mxCell id="54" value="Changer les paramètres" style="ellipse;whiteSpace=wrap;html=1;fontSize=16;container=0;" parent="1" vertex="1">
                    <mxGeometry x="1660" y="777" width="140" height="70" as="geometry"/>
                </mxCell>
                <mxCell id="57" value="Page des parties" style="ellipse;whiteSpace=wrap;html=1;fontSize=16;container=0;" parent="1" vertex="1">
                    <mxGeometry x="1170" y="560" width="140" height="70" as="geometry"/>
                </mxCell>
                <mxCell id="59" style="edgeStyle=none;curved=1;rounded=0;orthogonalLoop=1;jettySize=auto;html=1;fontSize=12;startSize=8;endSize=8;" parent="1" source="53" target="54" edge="1">
                    <mxGeometry relative="1" as="geometry"/>
                </mxCell>
                <mxCell id="60" style="edgeStyle=none;curved=1;rounded=0;orthogonalLoop=1;jettySize=auto;html=1;entryX=0;entryY=0.5;entryDx=0;entryDy=0;fontSize=12;startSize=8;endSize=8;" parent="1" source="57" target="49" edge="1">
                    <mxGeometry relative="1" as="geometry"/>
                </mxCell>
                <mxCell id="61" style="edgeStyle=none;curved=1;rounded=0;orthogonalLoop=1;jettySize=auto;html=1;entryX=0;entryY=0.5;entryDx=0;entryDy=0;fontSize=12;startSize=8;endSize=8;" parent="1" source="57" target="50" edge="1">
                    <mxGeometry relative="1" as="geometry"/>
                </mxCell>
                <mxCell id="62" style="edgeStyle=none;curved=1;rounded=0;orthogonalLoop=1;jettySize=auto;html=1;entryX=0;entryY=0.5;entryDx=0;entryDy=0;fontSize=12;startSize=8;endSize=8;" parent="1" source="57" target="51" edge="1">
                    <mxGeometry relative="1" as="geometry"/>
                </mxCell>
                <mxCell id="63" style="edgeStyle=none;curved=1;rounded=0;orthogonalLoop=1;jettySize=auto;html=1;entryX=0;entryY=0.5;entryDx=0;entryDy=0;fontSize=12;startSize=8;endSize=8;" parent="1" source="57" target="52" edge="1">
                    <mxGeometry relative="1" as="geometry"/>
                </mxCell>
                <mxCell id="64" style="edgeStyle=none;curved=1;rounded=0;orthogonalLoop=1;jettySize=auto;html=1;entryX=0;entryY=0.5;entryDx=0;entryDy=0;fontSize=12;startSize=8;endSize=8;" parent="1" source="57" target="53" edge="1">
                    <mxGeometry relative="1" as="geometry"/>
                </mxCell>
                <mxCell id="45" value="Se déconnecter" style="ellipse;whiteSpace=wrap;html=1;fontSize=16;container=0;" parent="1" vertex="1">
                    <mxGeometry x="1450" y="870" width="140" height="70" as="geometry"/>
                </mxCell>
                <mxCell id="46" value="Page des paramètres" style="ellipse;whiteSpace=wrap;html=1;fontSize=16;container=0;" parent="1" vertex="1">
                    <mxGeometry x="1180" y="870" width="140" height="70" as="geometry"/>
                </mxCell>
                <mxCell id="47" style="edgeStyle=none;curved=1;rounded=0;orthogonalLoop=1;jettySize=auto;html=1;fontSize=12;startSize=8;endSize=8;" parent="1" source="46" target="45" edge="1">
                    <mxGeometry relative="1" as="geometry"/>
                </mxCell>
                <mxCell id="25" value="Discuter avec un mort" style="ellipse;whiteSpace=wrap;html=1;fontSize=16;container=0;" parent="1" vertex="1">
                    <mxGeometry x="1810" y="860" width="140" height="70" as="geometry"/>
                </mxCell>
                <mxCell id="26" value="Faire l'action de son pouvoir" style="ellipse;whiteSpace=wrap;html=1;fontSize=16;container=0;" parent="1" vertex="1">
                    <mxGeometry x="1590" y="1020" width="140" height="70" as="geometry"/>
                </mxCell>
                <mxCell id="27" value="Voir le rôle d'un joueur" style="ellipse;whiteSpace=wrap;html=1;fontSize=16;container=0;" parent="1" vertex="1">
                    <mxGeometry x="1810" y="963" width="140" height="70" as="geometry"/>
                </mxCell>
                <mxCell id="28" value="Contaminer un villageois" style="ellipse;whiteSpace=wrap;html=1;fontSize=16;container=0;" parent="1" vertex="1">
                    <mxGeometry x="1810" y="1067" width="140" height="70" as="geometry"/>
                </mxCell>
                <mxCell id="29" value="Voir la discussion des loups" style="ellipse;whiteSpace=wrap;html=1;fontSize=16;container=0;" parent="1" vertex="1">
                    <mxGeometry x="1810" y="1170" width="140" height="70" as="geometry"/>
                </mxCell>
                <mxCell id="213" style="edgeStyle=none;html=1;exitX=1;exitY=0.5;exitDx=0;exitDy=0;entryX=0;entryY=0.5;entryDx=0;entryDy=0;startArrow=none;startFill=0;endArrow=classic;endFill=1;startSize=8;endSize=8;" edge="1" parent="1" source="30" target="203">
                    <mxGeometry relative="1" as="geometry"/>
                </mxCell>
                <mxCell id="30" value="Page du jeux" style="ellipse;whiteSpace=wrap;html=1;fontSize=16;container=0;" parent="1" vertex="1">
                    <mxGeometry x="1180" y="1380" width="140" height="70" as="geometry"/>
                </mxCell>
                <mxCell id="31" style="edgeStyle=none;curved=1;rounded=0;orthogonalLoop=1;jettySize=auto;html=1;entryX=0;entryY=0.5;entryDx=0;entryDy=0;fontSize=12;startSize=8;endSize=8;" parent="1" source="26" target="25" edge="1">
                    <mxGeometry relative="1" as="geometry"/>
                </mxCell>
                <mxCell id="32" style="edgeStyle=none;curved=1;rounded=0;orthogonalLoop=1;jettySize=auto;html=1;entryX=0;entryY=0.5;entryDx=0;entryDy=0;fontSize=12;startSize=8;endSize=8;" parent="1" source="26" target="27" edge="1">
                    <mxGeometry relative="1" as="geometry"/>
                </mxCell>
                <mxCell id="33" style="edgeStyle=none;curved=1;rounded=0;orthogonalLoop=1;jettySize=auto;html=1;entryX=0;entryY=0.5;entryDx=0;entryDy=0;fontSize=12;startSize=8;endSize=8;" parent="1" source="26" target="28" edge="1">
                    <mxGeometry relative="1" as="geometry"/>
                </mxCell>
                <mxCell id="34" style="edgeStyle=none;curved=1;rounded=0;orthogonalLoop=1;jettySize=auto;html=1;entryX=0;entryY=0.5;entryDx=0;entryDy=0;fontSize=12;startSize=8;endSize=8;" parent="1" source="26" target="29" edge="1">
                    <mxGeometry relative="1" as="geometry"/>
                </mxCell>
                <mxCell id="35" style="edgeStyle=none;curved=1;rounded=0;orthogonalLoop=1;jettySize=auto;html=1;fontSize=12;startSize=8;endSize=8;exitX=1;exitY=0.5;exitDx=0;exitDy=0;" parent="1" source="30" target="26" edge="1">
                    <mxGeometry relative="1" as="geometry"/>
                </mxCell>
                <mxCell id="191" value="Propose voter" style="ellipse;whiteSpace=wrap;html=1;fontSize=16;container=0;" parent="1" vertex="1">
                    <mxGeometry x="1820" y="1270" width="140" height="70" as="geometry"/>
                </mxCell>
                <mxCell id="190" value="Ratifier le vote" style="ellipse;whiteSpace=wrap;html=1;fontSize=16;container=0;" parent="1" vertex="1">
                    <mxGeometry x="1820" y="1380" width="140" height="70" as="geometry"/>
                </mxCell>
                <mxCell id="69" value="Créer un compte&amp;nbsp;" style="ellipse;whiteSpace=wrap;html=1;fontSize=16;container=0;" parent="1" vertex="1">
                    <mxGeometry x="1440" y="150" width="140" height="70" as="geometry"/>
                </mxCell>
                <mxCell id="70" value="Se connecter" style="ellipse;whiteSpace=wrap;html=1;fontSize=16;container=0;" parent="1" vertex="1">
                    <mxGeometry x="1440" y="250" width="140" height="70" as="geometry"/>
                </mxCell>
                <mxCell id="71" value="Page de &lt;br&gt;connexion" style="ellipse;whiteSpace=wrap;html=1;fontSize=16;container=0;" parent="1" vertex="1">
                    <mxGeometry x="1170" y="200" width="140" height="70" as="geometry"/>
                </mxCell>
                <mxCell id="72" style="edgeStyle=none;curved=1;rounded=0;orthogonalLoop=1;jettySize=auto;html=1;entryX=0;entryY=0.5;entryDx=0;entryDy=0;fontSize=12;startSize=8;endSize=8;" parent="1" source="71" target="69" edge="1">
                    <mxGeometry relative="1" as="geometry"/>
                </mxCell>
                <mxCell id="73" style="edgeStyle=none;curved=1;rounded=0;orthogonalLoop=1;jettySize=auto;html=1;entryX=0;entryY=0.5;entryDx=0;entryDy=0;fontSize=12;startSize=8;endSize=8;" parent="1" source="71" target="70" edge="1">
                    <mxGeometry relative="1" as="geometry"/>
                </mxCell>
                <mxCell id="205" value="" style="edgeStyle=none;html=1;startArrow=none;startFill=0;endArrow=classic;endFill=1;startSize=8;endSize=8;" edge="1" parent="1" source="203" target="204">
                    <mxGeometry relative="1" as="geometry"/>
                </mxCell>
                <mxCell id="210" value="" style="edgeStyle=none;html=1;startArrow=none;startFill=0;endArrow=classic;endFill=1;startSize=8;endSize=8;" edge="1" parent="1" source="203" target="209">
                    <mxGeometry relative="1" as="geometry"/>
                </mxCell>
                <mxCell id="212" style="edgeStyle=none;html=1;exitX=1;exitY=0.5;exitDx=0;exitDy=0;entryX=0;entryY=0.5;entryDx=0;entryDy=0;startArrow=none;startFill=0;endArrow=classic;endFill=1;startSize=8;endSize=8;" edge="1" parent="1" source="203" target="206">
                    <mxGeometry relative="1" as="geometry"/>
                </mxCell>
                <mxCell id="203" value="Chat" style="ellipse;whiteSpace=wrap;html=1;fontSize=16;container=0;" vertex="1" parent="1">
                    <mxGeometry x="1580" y="1660" width="140" height="70" as="geometry"/>
                </mxCell>
                <mxCell id="204" value="Voir la liste des&lt;br&gt;chats" style="ellipse;whiteSpace=wrap;html=1;fontSize=16;container=0;" vertex="1" parent="1">
                    <mxGeometry x="1820" y="1580" width="140" height="70" as="geometry"/>
                </mxCell>
                <mxCell id="206" value="Lire les messages&lt;br&gt;des chats" style="ellipse;whiteSpace=wrap;html=1;fontSize=16;container=0;" vertex="1" parent="1">
                    <mxGeometry x="1820" y="1670" width="140" height="70" as="geometry"/>
                </mxCell>
                <mxCell id="209" value="Envoyer un message" style="ellipse;whiteSpace=wrap;html=1;fontSize=16;container=0;" vertex="1" parent="1">
                    <mxGeometry x="1820" y="1760" width="140" height="70" as="geometry"/>
                </mxCell>
            </root>
        </mxGraphModel>
    </diagram>
</mxfile>